<?xml version="1.0" encoding="UTF-8" standalone="no"?>
<!DOCTYPE svg PUBLIC "-//W3C//DTD SVG 1.1//EN"
 "http://www.w3.org/Graphics/SVG/1.1/DTD/svg11.dtd">
<!-- Generated by graphviz version 2.43.0 (0)
 -->
<!-- Title: %3 Pages: 1 -->
<svg width="1496pt" height="480pt"
 viewBox="0.00 0.00 1496.00 480.00" xmlns="http://www.w3.org/2000/svg" xmlns:xlink="http://www.w3.org/1999/xlink">
<g id="graph0" class="graph" transform="scale(1 1) rotate(0) translate(4 476)">
<title>%3</title>
<polygon fill="white" stroke="transparent" points="-4,4 -4,-476 1492,-476 1492,4 -4,4"/>
<g id="clust1" class="cluster">
<title>cluster_Collaboration</title>
<polygon fill="none" stroke="black" stroke-dasharray="5,2" points="221.5,-370 221.5,-464 596,-464 596,-370 221.5,-370"/>
<text text-anchor="middle" x="408.75" y="-448.8" font-family="Times,serif" font-size="14.00">Slack and/or mailing lists</text>
</g>
<g id="clust2" class="cluster">
<title>cluster_GitHub</title>
<polygon fill="none" stroke="black" stroke-dasharray="5,2" points="219,-169 219,-362 1116,-362 1116,-169 219,-169"/>
<text text-anchor="middle" x="667.5" y="-346.8" font-family="Times,serif" font-size="14.00">GitHub</text>
</g>
<g id="clust3" class="cluster">
<title>cluster_DevMachine</title>
<polygon fill="none" stroke="black" stroke-dasharray="5,2" points="473.5,-82 473.5,-161 1480,-161 1480,-82 473.5,-82"/>
<text text-anchor="middle" x="976.75" y="-145.8" font-family="Times,serif" font-size="14.00">Dev machine</text>
</g>
<!-- Desire -->
<g id="node1" class="node">
<title>Desire</title>
<g id="a_node1"><a xlink:href="#want-to-make-a-change" xlink:title="Want to make\na change">
<polygon fill="none" stroke="black" points="94,-256 0,-256 0,-218 94,-218 94,-256"/>
<text text-anchor="middle" x="47" y="-240.8" font-family="Times,serif" font-size="14.00">Want to make</text>
<text text-anchor="middle" x="47" y="-225.8" font-family="Times,serif" font-size="14.00">a change</text>
</a>
</g>
</g>
<!-- DiscussApproach -->
<g id="node2" class="node">
<title>DiscussApproach</title>
<g id="a_node2"><a xlink:href="#discuss-approach" xlink:title="Discuss approach">
<polygon fill="none" stroke="black" points="341.5,-414 229.5,-414 229.5,-378 341.5,-378 341.5,-414"/>
<text text-anchor="middle" x="285.5" y="-392.3" font-family="Times,serif" font-size="14.00">Discuss approach</text>
</a>
</g>
</g>
<!-- Desire&#45;&gt;DiscussApproach -->
<g id="edge4" class="edge">
<title>Desire&#45;&gt;DiscussApproach</title>
<path fill="none" stroke="black" d="M56.29,-256.24C66.48,-277.77 85.71,-312.32 112,-333 143.13,-357.49 184.68,-373.05 219.19,-382.57"/>
<polygon fill="black" stroke="black" points="218.63,-386.04 229.19,-385.22 220.42,-379.28 218.63,-386.04"/>
<text text-anchor="middle" x="160.5" y="-396.8" font-family="Times,serif" font-size="14.00">Approach is</text>
<text text-anchor="middle" x="160.5" y="-381.8" font-family="Times,serif" font-size="14.00">not clear</text>
</g>
<!-- Fork -->
<g id="node4" class="node">
<title>Fork</title>
<g id="a_node4"><a xlink:href="#fork-interuss-repository" xlink:title="Fork interuss\nrepository">
<polygon fill="none" stroke="black" points="578.5,-215 490.5,-215 490.5,-177 578.5,-177 578.5,-215"/>
<text text-anchor="middle" x="534.5" y="-199.8" font-family="Times,serif" font-size="14.00">Fork interuss</text>
<text text-anchor="middle" x="534.5" y="-184.8" font-family="Times,serif" font-size="14.00">repository</text>
</a>
</g>
</g>
<!-- Desire&#45;&gt;Fork -->
<g id="edge1" class="edge">
<title>Desire&#45;&gt;Fork</title>
<g id="a_edge1"><a xlink:href="#large-contributions" xlink:title="Change is\nnot large">
<path fill="none" stroke="black" d="M71.69,-217.99C103.14,-194.09 161.47,-154.32 219,-139 310.55,-114.63 419.88,-148.12 482.54,-173.13"/>
<polygon fill="black" stroke="black" points="481.24,-176.38 491.82,-176.91 483.88,-169.89 481.24,-176.38"/>
</a>
</g>
<g id="a_edge1&#45;label"><a xlink:href="#large-contributions" xlink:title="Change is\nnot large">
<text text-anchor="middle" x="285.5" y="-157.8" font-family="Times,serif" font-size="14.00">Change is</text>
<text text-anchor="middle" x="285.5" y="-142.8" font-family="Times,serif" font-size="14.00">not large</text>
</a>
</g>
</g>
<!-- CreateIssue -->
<g id="node12" class="node">
<title>CreateIssue</title>
<g id="a_node12"><a xlink:href="#create-issue-in-repo-describing-approach" xlink:title="Create Issue in\nrepo describing\napproach">
<polygon fill="none" stroke="black" points="336,-230.5 235,-230.5 235,-177.5 336,-177.5 336,-230.5"/>
<text text-anchor="middle" x="285.5" y="-215.3" font-family="Times,serif" font-size="14.00">Create Issue in</text>
<text text-anchor="middle" x="285.5" y="-200.3" font-family="Times,serif" font-size="14.00">repo describing</text>
<text text-anchor="middle" x="285.5" y="-185.3" font-family="Times,serif" font-size="14.00">approach</text>
</a>
</g>
</g>
<!-- Desire&#45;&gt;CreateIssue -->
<g id="edge2" class="edge">
<title>Desire&#45;&gt;CreateIssue</title>
<g id="a_edge2"><a xlink:href="#large-contributions" xlink:title="Change is large">
<path fill="none" stroke="black" d="M94.16,-230.56C131.46,-225.35 184.24,-217.99 224.76,-212.34"/>
<polygon fill="black" stroke="black" points="225.36,-215.79 234.78,-210.94 224.39,-208.85 225.36,-215.79"/>
</a>
</g>
<g id="a_edge2&#45;label"><a xlink:href="#large-contributions" xlink:title="Change is large">
<text text-anchor="middle" x="160.5" y="-230.8" font-family="Times,serif" font-size="14.00">Change is large</text>
</a>
</g>
</g>
<!-- DiscussApproach&#45;&gt;Desire -->
<g id="edge5" class="edge">
<title>DiscussApproach&#45;&gt;Desire</title>
<path fill="none" stroke="black" d="M232.07,-377.91C227.14,-374.56 222.63,-370.62 219,-366 204.47,-347.49 223.38,-332.63 209,-314 183.22,-280.59 139.3,-260.94 103.84,-249.86"/>
<polygon fill="black" stroke="black" points="104.67,-246.45 94.08,-246.96 102.67,-253.16 104.67,-246.45"/>
<text text-anchor="middle" x="160.5" y="-317.8" font-family="Times,serif" font-size="14.00">Approach is clear</text>
</g>
<!-- DesignDoc -->
<g id="node3" class="node">
<title>DesignDoc</title>
<g id="a_node3"><a xlink:href="#create-or=update-design-doc" xlink:title="Create or update\ndesign doc">
<polygon fill="none" stroke="black" points="588,-424 481,-424 481,-386 588,-386 588,-424"/>
<text text-anchor="middle" x="534.5" y="-408.8" font-family="Times,serif" font-size="14.00">Create or update</text>
<text text-anchor="middle" x="534.5" y="-393.8" font-family="Times,serif" font-size="14.00">design doc</text>
</a>
</g>
</g>
<!-- DiscussApproach&#45;&gt;DesignDoc -->
<g id="edge22" class="edge">
<title>DiscussApproach&#45;&gt;DesignDoc</title>
<path fill="none" stroke="black" d="M341.8,-394.79C376.61,-394.41 422.47,-394.59 463,-397 465.53,-397.15 468.11,-397.33 470.71,-397.53"/>
<polygon fill="black" stroke="black" points="470.55,-401.03 480.81,-398.4 471.15,-394.05 470.55,-401.03"/>
<text text-anchor="middle" x="412.5" y="-415.8" font-family="Times,serif" font-size="14.00">Approach requires</text>
<text text-anchor="middle" x="412.5" y="-400.8" font-family="Times,serif" font-size="14.00">more specificity</text>
</g>
<!-- DesignDoc&#45;&gt;DiscussApproach -->
<g id="edge23" class="edge">
<title>DesignDoc&#45;&gt;DiscussApproach</title>
<path fill="none" stroke="black" d="M480.78,-423.33C474.84,-424.83 468.83,-426.11 463,-427 418.62,-433.76 406.04,-435.69 362,-427 351.99,-425.03 341.64,-421.71 331.93,-417.96"/>
<polygon fill="black" stroke="black" points="333.05,-414.64 322.47,-414.11 330.41,-421.12 333.05,-414.64"/>
</g>
<!-- Clone -->
<g id="node13" class="node">
<title>Clone</title>
<g id="a_node13"><a xlink:href="#clone-pull-latest-interuss-version" xlink:title="Clone/pull latest\ninteruss version">
<polygon fill="none" stroke="black" points="587.5,-129 481.5,-129 481.5,-91 587.5,-91 587.5,-129"/>
<text text-anchor="middle" x="534.5" y="-113.8" font-family="Times,serif" font-size="14.00">Clone/pull latest</text>
<text text-anchor="middle" x="534.5" y="-98.8" font-family="Times,serif" font-size="14.00">interuss version</text>
</a>
</g>
</g>
<!-- Fork&#45;&gt;Clone -->
<g id="edge6" class="edge">
<title>Fork&#45;&gt;Clone</title>
<path fill="none" stroke="black" d="M534.5,-176.94C534.5,-164.37 534.5,-151.8 534.5,-139.23"/>
<polygon fill="black" stroke="black" points="538,-139.15 534.5,-129.15 531,-139.15 538,-139.15"/>
</g>
<!-- CreateDraftPR -->
<g id="node5" class="node">
<title>CreateDraftPR</title>
<g id="a_node5"><a xlink:href="#create-draft-pr-in-interuss-repository" xlink:title="Create draft PR in\ninteruss repository">
<polygon fill="none" stroke="black" points="344,-287 227,-287 227,-249 344,-249 344,-287"/>
<text text-anchor="middle" x="285.5" y="-271.8" font-family="Times,serif" font-size="14.00">Create draft PR in</text>
<text text-anchor="middle" x="285.5" y="-256.8" font-family="Times,serif" font-size="14.00">interuss repository</text>
</a>
</g>
</g>
<!-- CheckCIResults -->
<g id="node6" class="node">
<title>CheckCIResults</title>
<g id="a_node6"><a xlink:href="#check-ci-results" xlink:title="Check CI results">
<polygon fill="none" stroke="black" points="588,-271 481,-271 481,-235 588,-235 588,-271"/>
<text text-anchor="middle" x="534.5" y="-249.3" font-family="Times,serif" font-size="14.00">Check CI results</text>
</a>
</g>
</g>
<!-- CreateDraftPR&#45;&gt;CheckCIResults -->
<g id="edge13" class="edge">
<title>CreateDraftPR&#45;&gt;CheckCIResults</title>
<path fill="none" stroke="black" d="M344.1,-264.5C382.05,-262.2 431.74,-259.18 470.7,-256.81"/>
<polygon fill="black" stroke="black" points="471.1,-260.3 480.87,-256.2 470.68,-253.31 471.1,-260.3"/>
</g>
<!-- ReadyForReview -->
<g id="node7" class="node">
<title>ReadyForReview</title>
<g id="a_node7"><a xlink:href="#mark-pr-ready-for-review" xlink:title="Mark PR ready\nfor review">
<polygon fill="none" stroke="black" points="786,-274 685,-274 685,-236 786,-236 786,-274"/>
<text text-anchor="middle" x="735.5" y="-258.8" font-family="Times,serif" font-size="14.00">Mark PR ready</text>
<text text-anchor="middle" x="735.5" y="-243.8" font-family="Times,serif" font-size="14.00">for review</text>
</a>
</g>
</g>
<!-- CheckCIResults&#45;&gt;ReadyForReview -->
<g id="edge14" class="edge">
<title>CheckCIResults&#45;&gt;ReadyForReview</title>
<path fill="none" stroke="black" d="M588.05,-253.53C614.59,-253.79 646.93,-254.12 674.45,-254.4"/>
<polygon fill="black" stroke="black" points="674.71,-257.9 684.75,-254.5 674.78,-250.9 674.71,-257.9"/>
<text text-anchor="middle" x="632" y="-257.8" font-family="Times,serif" font-size="14.00">CI passes</text>
</g>
<!-- DebugCIResults -->
<g id="node8" class="node">
<title>DebugCIResults</title>
<g id="a_node8"><a xlink:href="#inspect-ci-logs" xlink:title="Inspect CI logs">
<polygon fill="none" stroke="black" points="785,-218 686,-218 686,-182 785,-182 785,-218"/>
<text text-anchor="middle" x="735.5" y="-196.3" font-family="Times,serif" font-size="14.00">Inspect CI logs</text>
</a>
</g>
</g>
<!-- CheckCIResults&#45;&gt;DebugCIResults -->
<g id="edge15" class="edge">
<title>CheckCIResults&#45;&gt;DebugCIResults</title>
<path fill="none" stroke="black" d="M588.23,-238.76C594.22,-237.15 600.24,-235.54 606,-234 628.91,-227.88 654.13,-221.2 676.12,-215.39"/>
<polygon fill="black" stroke="black" points="677.2,-218.72 685.98,-212.78 675.41,-211.95 677.2,-218.72"/>
<text text-anchor="middle" x="632" y="-237.8" font-family="Times,serif" font-size="14.00">CI fails</text>
</g>
<!-- Merged -->
<g id="node10" class="node">
<title>Merged</title>
<g id="a_node10"><a xlink:href="#pr-merged" xlink:title="PR merged">
<polygon fill="none" stroke="black" points="1088.75,-299.54 1088.75,-314.46 1056.68,-325 1011.32,-325 979.25,-314.46 979.25,-299.54 1011.32,-289 1056.68,-289 1088.75,-299.54"/>
<text text-anchor="middle" x="1034" y="-303.3" font-family="Times,serif" font-size="14.00">PR merged</text>
</a>
</g>
</g>
<!-- ReadyForReview&#45;&gt;Merged -->
<g id="edge18" class="edge">
<title>ReadyForReview&#45;&gt;Merged</title>
<path fill="none" stroke="black" d="M786.36,-272.04C795.16,-274.65 804.3,-277.1 813,-279 864.99,-290.37 924.98,-297.63 969.17,-301.89"/>
<polygon fill="black" stroke="black" points="968.92,-305.39 979.2,-302.84 969.57,-298.42 968.92,-305.39"/>
<text text-anchor="middle" x="877.5" y="-316.8" font-family="Times,serif" font-size="14.00">Committer approves</text>
<text text-anchor="middle" x="877.5" y="-301.8" font-family="Times,serif" font-size="14.00">then merges</text>
</g>
<!-- RevertToDraft -->
<g id="node11" class="node">
<title>RevertToDraft</title>
<g id="a_node11"><a xlink:href="#convert-pr-to-draft" xlink:title="Convert PR\nto draft">
<polygon fill="none" stroke="black" points="1074,-271 994,-271 994,-233 1074,-233 1074,-271"/>
<text text-anchor="middle" x="1034" y="-255.8" font-family="Times,serif" font-size="14.00">Convert PR</text>
<text text-anchor="middle" x="1034" y="-240.8" font-family="Times,serif" font-size="14.00">to draft</text>
</a>
</g>
</g>
<!-- ReadyForReview&#45;&gt;RevertToDraft -->
<g id="edge19" class="edge">
<title>ReadyForReview&#45;&gt;RevertToDraft</title>
<path fill="none" stroke="black" d="M786.26,-250.53C795.16,-249.89 804.35,-249.34 813,-249 871.48,-246.71 938.77,-248.24 983.37,-249.83"/>
<polygon fill="black" stroke="black" points="983.52,-253.34 993.64,-250.21 983.78,-246.34 983.52,-253.34"/>
<text text-anchor="middle" x="877.5" y="-267.8" font-family="Times,serif" font-size="14.00">Committer&#39;s comments</text>
<text text-anchor="middle" x="877.5" y="-252.8" font-family="Times,serif" font-size="14.00">suggest changes</text>
</g>
<!-- RequestCommitterHelp -->
<g id="node9" class="node">
<title>RequestCommitterHelp</title>
<g id="a_node9"><a xlink:href="#request-committer-help-via-comment-in-PR" xlink:title="Request committer help\nvia comment in PR">
<polygon fill="none" stroke="black" points="1108,-215 960,-215 960,-177 1108,-177 1108,-215"/>
<text text-anchor="middle" x="1034" y="-199.8" font-family="Times,serif" font-size="14.00">Request committer help</text>
<text text-anchor="middle" x="1034" y="-184.8" font-family="Times,serif" font-size="14.00">via comment in PR</text>
</a>
</g>
</g>
<!-- DebugCIResults&#45;&gt;RequestCommitterHelp -->
<g id="edge17" class="edge">
<title>DebugCIResults&#45;&gt;RequestCommitterHelp</title>
<path fill="none" stroke="black" d="M785.13,-199.34C829.73,-198.74 896.73,-197.84 949.83,-197.12"/>
<polygon fill="black" stroke="black" points="949.96,-200.62 959.92,-196.99 949.87,-193.62 949.96,-200.62"/>
<text text-anchor="middle" x="877.5" y="-216.8" font-family="Times,serif" font-size="14.00">CI failure not</text>
<text text-anchor="middle" x="877.5" y="-201.8" font-family="Times,serif" font-size="14.00">fault of PR</text>
</g>
<!-- MakeChanges -->
<g id="node15" class="node">
<title>MakeChanges</title>
<g id="a_node15"><a xlink:href="#make-changes" xlink:title="Make changes">
<polygon fill="none" stroke="black" points="1081.5,-130 986.5,-130 986.5,-94 1081.5,-94 1081.5,-130"/>
<text text-anchor="middle" x="1034" y="-108.3" font-family="Times,serif" font-size="14.00">Make changes</text>
</a>
</g>
</g>
<!-- DebugCIResults&#45;&gt;MakeChanges -->
<g id="edge16" class="edge">
<title>DebugCIResults&#45;&gt;MakeChanges</title>
<path fill="none" stroke="black" d="M769.7,-181.95C782.9,-175.3 798.39,-168.15 813,-163 867.14,-143.9 931.32,-129.97 976.34,-121.53"/>
<polygon fill="black" stroke="black" points="977.02,-124.97 986.22,-119.72 975.75,-118.09 977.02,-124.97"/>
<text text-anchor="middle" x="877.5" y="-181.8" font-family="Times,serif" font-size="14.00">CI failure due</text>
<text text-anchor="middle" x="877.5" y="-166.8" font-family="Times,serif" font-size="14.00">to isssue in PR</text>
</g>
<!-- RevertToDraft&#45;&gt;MakeChanges -->
<g id="edge20" class="edge">
<title>RevertToDraft&#45;&gt;MakeChanges</title>
<path fill="none" stroke="black" d="M993.74,-255.11C957.06,-255.46 904.61,-249.27 877.5,-215 866.19,-200.71 867.26,-189.07 877.5,-174 899.47,-141.66 941.23,-126.19 976.08,-118.79"/>
<polygon fill="black" stroke="black" points="977.03,-122.17 986.18,-116.82 975.69,-115.3 977.03,-122.17"/>
</g>
<!-- CreateIssue&#45;&gt;Fork -->
<g id="edge3" class="edge">
<title>CreateIssue&#45;&gt;Fork</title>
<path fill="none" stroke="black" d="M336.19,-202.39C377.96,-201.04 437.54,-199.11 480.28,-197.72"/>
<polygon fill="black" stroke="black" points="480.61,-201.22 490.49,-197.39 480.38,-194.22 480.61,-201.22"/>
<text text-anchor="middle" x="412.5" y="-219.8" font-family="Times,serif" font-size="14.00">Committers agree</text>
<text text-anchor="middle" x="412.5" y="-204.8" font-family="Times,serif" font-size="14.00">on approach</text>
</g>
<!-- Branch -->
<g id="node14" class="node">
<title>Branch</title>
<g id="a_node14"><a xlink:href="#create-new-branch" xlink:title="Create new branch">
<polygon fill="none" stroke="black" points="795,-126 676,-126 676,-90 795,-90 795,-126"/>
<text text-anchor="middle" x="735.5" y="-104.3" font-family="Times,serif" font-size="14.00">Create new branch</text>
</a>
</g>
</g>
<!-- Clone&#45;&gt;Branch -->
<g id="edge7" class="edge">
<title>Clone&#45;&gt;Branch</title>
<path fill="none" stroke="black" d="M587.52,-109.48C611.42,-109.24 640.08,-108.95 665.72,-108.69"/>
<polygon fill="black" stroke="black" points="665.79,-112.19 675.75,-108.59 665.72,-105.19 665.79,-112.19"/>
</g>
<!-- Branch&#45;&gt;MakeChanges -->
<g id="edge8" class="edge">
<title>Branch&#45;&gt;MakeChanges</title>
<path fill="none" stroke="black" d="M795.08,-108.79C847.61,-109.5 924.2,-110.53 976.18,-111.23"/>
<polygon fill="black" stroke="black" points="976.19,-114.73 986.23,-111.37 976.28,-107.73 976.19,-114.73"/>
</g>
<!-- TestChanges -->
<g id="node16" class="node">
<title>TestChanges</title>
<g id="a_node16"><a xlink:href="#test-changes" xlink:title="Test changes">
<polygon fill="none" stroke="black" points="1282,-127 1195,-127 1195,-91 1282,-91 1282,-127"/>
<text text-anchor="middle" x="1238.5" y="-105.3" font-family="Times,serif" font-size="14.00">Test changes</text>
</a>
</g>
</g>
<!-- MakeChanges&#45;&gt;TestChanges -->
<g id="edge9" class="edge">
<title>MakeChanges&#45;&gt;TestChanges</title>
<path fill="none" stroke="black" d="M1081.67,-101.6C1109.37,-96.71 1145.18,-92.62 1177,-96 1179.52,-96.27 1182.1,-96.6 1184.69,-96.97"/>
<polygon fill="black" stroke="black" points="1184.28,-100.45 1194.72,-98.64 1185.42,-93.55 1184.28,-100.45"/>
</g>
<!-- TestChanges&#45;&gt;MakeChanges -->
<g id="edge10" class="edge">
<title>TestChanges&#45;&gt;MakeChanges</title>
<path fill="none" stroke="black" d="M1194.82,-109.63C1164.93,-110.08 1124.66,-110.67 1092.02,-111.16"/>
<polygon fill="black" stroke="black" points="1091.66,-107.66 1081.71,-111.31 1091.76,-114.66 1091.66,-107.66"/>
<text text-anchor="middle" x="1151.5" y="-113.8" font-family="Times,serif" font-size="14.00">Tests fail</text>
</g>
<!-- PushChanges -->
<g id="node17" class="node">
<title>PushChanges</title>
<g id="a_node17"><a xlink:href="#push-branch-to-github-fork" xlink:title="Push branch\nto GitHub fork">
<polygon fill="none" stroke="black" points="1472,-128 1374,-128 1374,-90 1472,-90 1472,-128"/>
<text text-anchor="middle" x="1423" y="-112.8" font-family="Times,serif" font-size="14.00">Push branch</text>
<text text-anchor="middle" x="1423" y="-97.8" font-family="Times,serif" font-size="14.00">to GitHub fork</text>
</a>
</g>
</g>
<!-- TestChanges&#45;&gt;PushChanges -->
<g id="edge11" class="edge">
<title>TestChanges&#45;&gt;PushChanges</title>
<path fill="none" stroke="black" d="M1282.29,-109C1306.47,-109 1337.05,-109 1363.43,-109"/>
<polygon fill="black" stroke="black" points="1363.69,-112.5 1373.69,-109 1363.69,-105.5 1363.69,-112.5"/>
<text text-anchor="middle" x="1328" y="-112.8" font-family="Times,serif" font-size="14.00">Tests pass</text>
</g>
<!-- PushChanges&#45;&gt;CreateDraftPR -->
<g id="edge12" class="edge">
<title>PushChanges&#45;&gt;CreateDraftPR</title>
<path fill="none" stroke="black" d="M1404.66,-89.76C1374.43,-58.47 1308.7,0 1239.5,0 533.5,0 533.5,0 533.5,0 418.42,0 422,-95.8 362,-194 350.55,-212.73 358.89,-223.87 344,-240 343.25,-240.82 342.47,-241.61 341.66,-242.39"/>
<polygon fill="black" stroke="black" points="339.33,-239.77 333.79,-248.81 343.75,-245.19 339.33,-239.77"/>
<text text-anchor="middle" x="877.5" y="-3.8" font-family="Times,serif" font-size="14.00">First push</text>
</g>
<!-- PushChanges&#45;&gt;CheckCIResults -->
<g id="edge21" class="edge">
<title>PushChanges&#45;&gt;CheckCIResults</title>
<path fill="none" stroke="black" d="M1373.88,-92.82C1289.26,-66.71 1108.68,-21.41 960,-55 889.42,-70.95 877.33,-91.86 813,-125 804.86,-129.19 803.4,-131.37 795,-135 744.04,-157.03 726.47,-149.86 676,-173 642.81,-188.22 635.87,-195 606,-216 601.34,-219.27 600.82,-220.97 596,-224 592.66,-226.1 589.14,-228.15 585.55,-230.13"/>
<polygon fill="black" stroke="black" points="583.74,-227.13 576.54,-234.9 587.01,-233.32 583.74,-227.13"/>
<text text-anchor="middle" x="1034" y="-73.8" font-family="Times,serif" font-size="14.00">Subsequent</text>
<text text-anchor="middle" x="1034" y="-58.8" font-family="Times,serif" font-size="14.00">pushes</text>
</g>
</g>
</svg>
